<?xml version="1.0" encoding="UTF-8"?>
<svg xmlns="http://www.w3.org/2000/svg" version="1.1" viewBox="0 0 1668.2 412.6">
  <defs>
    
  </defs>
  
  <g>
    <g id="Layer_1">
      <g>
        <g>
          <g>
            <path class="cls-1" d="M103.2,103.4h135.8s0,32.6,0,32.6h-88.7c-2.5,0-4.7.9-6.5,2.6-1.8,1.8-2.6,3.9-2.6,6.5v32.9c0,2.5.9,4.7,2.6,6.5,1.8,1.8,3.9,2.6,6.5,2.6h83.7s0,32.6,0,32.6h-83.7c-2.5,0-4.7.9-6.5,2.6-1.8,1.8-2.6,3.9-2.6,6.5v80.2s-37.9,0-37.9,0V103.4Z"></path>
            <path class="cls-1" d="M308.1,103.2h38.5s73.8,205.7,73.8,205.7h-39.7s-13.8-40-13.8-40c-1-2.5-2.3-4.5-4-5.7-1.7-1.3-3.9-1.9-6.6-1.9h-57.9c-5.7,0-9.3,2.5-10.9,7.6l-13.8,40h-39.4s73.8-205.7,73.8-205.7ZM303.1,226.3c1.2,1.6,3.1,2.3,5.9,2.3h36.4c2.5,0,4.4-.8,5.6-2.3,1.2-1.6,1.4-3.7.6-6.5l-19.4-56.1c-.6-2.2-1.5-3.6-2.8-4.3-1.3-.7-2.6-.7-4,0s-2.3,2.1-2.9,4.3l-20,56.1c-.8,2.7-.6,4.9.6,6.5Z"></path>
            <path class="cls-1" d="M444.4,103.4h83.7c13.5,0,25.4,2.4,35.6,7.3,10.2,4.9,18,11.8,23.5,20.7,5.5,8.9,8.2,19.4,8.2,31.3,0,11.9-3.1,22.3-9.4,31-6.3,8.7-14.3,15.2-24.1,19.5-2.7,1.4-4.4,3-5,4.9-.6,1.9-.2,4.2,1.2,6.9l49.4,84h-45.5s-36.4-68.5-36.4-68.5c-3.1-5.3-6-8.9-8.7-10.9-2.6-2-6.2-2.9-10.7-2.9h-16.5c-2.6,0-4.4.7-5.6,2.2s-1.8,3.7-1.8,6.6v73.5s-37.9,0-37.9,0V103.4ZM548.1,186.5c6.1-5.2,9.1-12.4,9.1-21.6,0-9-2.9-16.1-8.8-21.2-5.9-5.1-13.6-7.6-23.2-7.6h-34.1c-2.7,0-4.9.8-6.5,2.3-1.6,1.6-2.4,3.7-2.4,6.5v40.6c0,2.7.8,4.9,2.4,6.5,1.6,1.6,3.7,2.3,6.5,2.3h32.6c10.2,0,18.3-2.6,24.4-7.8Z"></path>
            <path class="cls-1" d="M635.5,103.4h46.7s52,139.6,52,139.6c1.2,3.1,2.9,4.7,5.3,4.7,2.3,0,4.2-1.6,5.6-4.7l51.7-139.6h46.4s0,205.7,0,205.7h-36.4s.3-119.9.3-119.9c0-2-.6-3.4-1.8-4.4-1.2-1-2.5-1.2-3.8-.7-1.4.5-2.4,1.6-3.2,3.4l-45,121.7h-27.9s-45-121.7-45-121.7c-.8-1.8-1.9-2.9-3.2-3.4-1.4-.5-2.6-.2-3.8.7-1.2,1-1.8,2.5-1.8,4.7l.6,119.6h-36.7s0-205.7,0-205.7Z"></path>
          </g>
          <g>
            <path class="cls-1" d="M878.5,276.5l98.4-131.1c2-2.5,2.5-4.7,1.6-6.6-.9-1.9-2.9-2.8-6-2.8h-88.5s0-32.6,0-32.6h144.3s0,32.6,0,32.6l-98.4,131.1c-2,2.5-2.5,4.8-1.6,6.6.9,1.9,2.9,2.8,6,2.8h94.3s0,32.6,0,32.6h-150.2s0-32.6,0-32.6Z"></path>
            <path class="cls-1" d="M1061,103.4h138.7s0,32.6,0,32.6h-92c-2.8,0-4.9.8-6.5,2.3-1.6,1.6-2.4,3.7-2.4,6.5v33.5c0,2.7.8,4.9,2.4,6.5,1.6,1.6,3.7,2.3,6.5,2.3h87s0,32.3,0,32.3h-87c-2.8,0-4.9.8-6.5,2.3-1.6,1.6-2.4,3.7-2.4,6.5v39.4c0,2.7.8,4.9,2.4,6.5s3.7,2.3,6.5,2.3h92.3s0,32.6,0,32.6h-139s0-205.7,0-205.7Z"></path>
            <path class="cls-1" d="M1233.4,103.4h83.7c13.5,0,25.4,2.4,35.6,7.3,10.2,4.9,18,11.8,23.5,20.7,5.5,8.9,8.2,19.4,8.2,31.3,0,11.9-3.1,22.3-9.4,31-6.3,8.7-14.3,15.2-24.1,19.5-2.7,1.4-4.4,3-5,4.9-.6,1.9-.2,4.2,1.2,6.9l49.4,84h-45.5s-36.4-68.5-36.4-68.5c-3.1-5.3-6-8.9-8.7-10.9-2.6-2-6.2-2.9-10.7-2.9h-16.5c-2.5,0-4.4.7-5.6,2.2-1.2,1.5-1.8,3.7-1.8,6.6v73.5s-37.9,0-37.9,0V103.4ZM1337.2,186.4c6.1-5.2,9.1-12.4,9.1-21.6,0-9-2.9-16.1-8.8-21.2-5.9-5.1-13.6-7.6-23.2-7.6h-34.1c-2.7,0-4.9.8-6.5,2.3-1.6,1.6-2.3,3.7-2.3,6.5v40.6c0,2.7.8,4.9,2.3,6.5,1.6,1.6,3.7,2.3,6.5,2.3h32.6c10.2,0,18.3-2.6,24.4-7.8Z"></path>
          </g>
        </g>
        <path class="cls-1" d="M1556.1,151.8c-6-16-14.4-28.4-25.4-37.3-11-8.9-23.4-13.4-37.3-13.4h-12c-13.7,0-26,4.5-36.9,13.4-10.9,8.9-19.4,21.4-25.6,37.3-6.2,16-9.3,34.1-9.3,54.5,0,20.4,3.1,38.5,9.3,54.5,6.2,16,14.7,28.4,25.6,37.3s23.2,13.4,36.9,13.4h12c13.9,0,26.3-4.5,37.3-13.4,11-8.9,19.4-21.4,25.4-37.3,6-16,9-34.1,9-54.5,0-20.4-3-38.5-9-54.5ZM1452.5,169c2.9-11,7-19.6,12.2-25.9,5.2-6.3,11-9.4,17.5-9.4h10c6.9,0,12.9,3.1,18.1,9.3,2.6,3.1,4.8,6.7,6.8,11l-68.3,67c-.4-4.7-.7-9.5-.7-14.6,0-13.9,1.5-26.3,4.4-37.3ZM1522.3,243.9c-2.8,11-6.9,19.5-12.2,25.7-5.3,6.2-11.3,9.3-17.9,9.3h-10c-6.5,0-12.3-3.1-17.5-9.4-2.6-3.1-4.9-6.8-6.9-11l68.1-66.7c.4,4.7.6,9.5.6,14.5,0,14.1-1.4,26.6-4.3,37.6Z"></path>
      </g>
    </g>
  </g>
</svg>